<svg xmlns="http://www.w3.org/2000/svg" width="449" height="154" viewBox="0 0 449 154">
    <g fill="none" fill-rule="evenodd">
        <path fill="#E2E2E2" d="M51.5 64.592c13.628 0 25.151-11.526 25.151-25.158 0-14.83-11.523-26.357-25.151-26.357-14.826 0-26.349 11.527-26.349 26.357 0 13.632 11.523 25.158 26.349 25.158zm0 13.178C34.312 77.77 0 86.332 0 102.93v13.178h103v-13.178c0-16.597-34.312-25.159-51.5-25.159z"/>
        <path fill="#BFBFBF" d="M24.358 28.86a20.051 20.051 0 0 1-.405-4.071c0-10.176 7.458-18.867 17.966-22.118V.107H61.08v2.907c9.8 3.49 16.768 11.939 16.768 21.775 0 1.393-.131 2.734-.34 4.07h3.933v3.69s-12.461 4.697-29.763 4.697c-17.66 0-30.12-4.697-30.12-4.697v-3.69h2.799z"/>
        <path fill="#A9A9A9" d="M21.558 31.256S36.53 33.017 51.5 33.017c14.97 0 29.942-1.761 29.942-1.761v1.057s-12.461 4.933-29.763 4.933c-17.66 0-30.12-4.933-30.12-4.933v-1.057zM42.421 2.52l.695 26.34h-1.39L33.816 6.657c2.522-1.801 5.43-3.216 8.604-4.137zM61.095 2.66l-.691 26.2h1.39l7.812-21.93c-2.485-1.84-5.361-3.3-8.51-4.27z"/>
        <g>
            <path fill="#317DE2" d="M357.605 65.107c13.76 0 25.395-11.635 25.395-25.395 0-14.97-11.635-26.605-25.395-26.605-14.97 0-26.605 11.635-26.605 26.605 0 13.76 11.635 25.395 26.605 25.395zm-.105 13c-17.188 0-51.5 8.487-51.5 24.937v13.063h103v-13.063c0-16.45-34.312-24.937-51.5-24.937z"/>
            <path fill="#FFF533" d="M330.492 29.107A19.922 19.922 0 0 1 330 24.63c0-10.193 7.472-18.898 18-22.155V.107h19v2.642c9.923 3.45 17 11.961 17 21.88 0 1.535-.158 3.006-.405 4.478H388v3.52s-12.485 4.48-29.82 4.48c-17.695 0-30.18-4.48-30.18-4.48v-3.52h2.492z"/>
            <path fill="#FFE900" d="M328 31.107s15 1.765 30 1.765 30-1.765 30-1.765v1.059s-12.485 4.941-29.82 4.941c-17.695 0-30.18-4.941-30.18-4.941v-1.059z"/>
            <path fill="#FFD900" d="M349.295 2.295L350 28.107h-1.42l-8.044-21.833c2.581-1.73 5.54-3.09 8.76-3.979zM366.947 2.586l-.697 25.521h1.42l7.84-21.279c-2.504-1.809-5.396-3.255-8.563-4.242z"/>
        </g>
        <g>
            <path fill="#E2E2E2" d="M204.5 64.592c13.628 0 25.151-11.526 25.151-25.158 0-14.83-11.523-26.357-25.151-26.357-14.826 0-26.349 11.527-26.349 26.357 0 13.632 11.523 25.158 26.349 25.158zm0 13.178c-17.188 0-51.5 8.562-51.5 25.159v13.178h103v-13.178c0-16.597-34.312-25.159-51.5-25.159z"/>
            <path fill="#BFBFBF" d="M177.358 28.86a20.051 20.051 0 0 1-.405-4.071c0-10.176 7.458-18.867 17.966-22.118V.107h19.162v2.907c9.8 3.49 16.768 11.939 16.768 21.775 0 1.393-.131 2.734-.34 4.07h3.933v3.69s-12.461 4.697-29.763 4.697c-17.66 0-30.12-4.697-30.12-4.697v-3.69h2.799z"/>
            <path fill="#A9A9A9" d="M174.558 31.256s14.971 1.761 29.942 1.761c14.97 0 29.942-1.761 29.942-1.761v1.057s-12.461 4.933-29.763 4.933c-17.66 0-30.12-4.933-30.12-4.933v-1.057zM196.01 2.352l.99 25.755h-1l-8.407-21.858c2.495-1.687 5.335-3.013 8.416-3.897zM213.947 2.586l-.697 25.521h1.42l7.84-21.279c-2.504-1.809-5.396-3.255-8.563-4.242z"/>
        </g>
        <g stroke="#FFF" stroke-width="6" transform="translate(375 79.107)">
            <circle cx="37" cy="37" r="34" fill="#64C967"/>
            <path stroke-linecap="round" d="M25 36.922l8.539 11.517a1 1 0 0 0 1.606 0L51.04 27"/>
        </g>
    </g>
</svg>
