<svg xmlns="http://www.w3.org/2000/svg" xmlns:xlink="http://www.w3.org/1999/xlink" width="358" height="358" viewBox="0 0 358 358">
    <defs>
        <filter id="b" width="119.8%" height="123.1%" x="-9.9%" y="-9.4%" filterUnits="objectBoundingBox">
            <feOffset dy="5" in="SourceAlpha" result="shadowOffsetOuter1"/>
            <feGaussianBlur in="shadowOffsetOuter1" result="shadowBlurOuter1" stdDeviation="8"/>
            <feColorMatrix in="shadowBlurOuter1" result="shadowMatrixOuter1" values="0 0 0 0 0 0 0 0 0 0 0 0 0 0 0 0 0 0 0.1 0"/>
            <feMerge>
                <feMergeNode in="shadowMatrixOuter1"/>
                <feMergeNode in="SourceGraphic"/>
            </feMerge>
        </filter>
        <path id="a" d="M0 0h89v89H0V0z"/>
        <mask id="c" width="89" height="89" x="0" y="0" fill="#fff">
            <use xlink:href="#a"/>
        </mask>
        <filter id="d" width="152.5%" height="140.8%" x="-26.2%" y="-16.5%" filterUnits="objectBoundingBox">
            <feOffset dy="5" in="SourceAlpha" result="shadowOffsetOuter1"/>
            <feGaussianBlur in="shadowOffsetOuter1" result="shadowBlurOuter1" stdDeviation="8"/>
            <feColorMatrix in="shadowBlurOuter1" result="shadowMatrixOuter1" values="0 0 0 0 0 0 0 0 0 0 0 0 0 0 0 0 0 0 0.1 0"/>
            <feMerge>
                <feMergeNode in="shadowMatrixOuter1"/>
                <feMergeNode in="SourceGraphic"/>
            </feMerge>
        </filter>
    </defs>
    <g fill="none" fill-rule="evenodd">
        <g filter="url(#b)" transform="translate(16 109.107)">
            <path fill="#317DE2" d="M29 47h210v138H29c-17-1-29-9-29-23V26c4.667 14 14.333 21 29 21z"/>
            <g stroke="#FFF" opacity=".5">
                <path stroke-width="2" d="M60 67v70h-9v28h106v-20h47v-23h21V77h-22V67H60z"/>
                <path fill="#0894FF" d="M142.5 65.5v3h23v-3h-23zM223.5 87.5v23h3v-23h-3zM58.5 72.5v23h3v-23h-3zM164.5 143.5v3h32v-3h-32zM63.5 163.5v3h32v-3h-32zM116.5 163.5v3h32v-3h-32zM172.5 65.5v3h23v-3h-23z"/>
                <path stroke-width="2" d="M97 67v33h38V67M135 67v33M61 120.5h5M78 120h11.281v-20H97M106 164v-47h51v33"/>
            </g>
            <path fill="#2762B0" d="M239 91v138c17-1 29-7 29-23V70c-4.667 14-14.333 21-29 21z"/>
            <path fill="#317DE2" d="M239 185V47c17 1 29 9 29 23v136c-4.667-14-14.333-21-29-21z"/>
            <path fill="#388DFC" d="M29 138V0C12 1 5 9 0 23v136c4.667-14 14.333-21 29-21z"/>
        </g>
        <g stroke-dasharray="4,4" transform="translate(80 1.107)">
            <use stroke="#317DE2" stroke-width="6" mask="url(#c)" xlink:href="#a"/>
            <use stroke="#979797" xlink:href="#a"/>
        </g>
        <path fill="#317DE2" d="M111 45.107l14-15 13 15h-8v15h-11v-15z"/>
        <path stroke="#317DE2" stroke-width="2.88" d="M245 102.107c0-27.062-21.938-49-49-49"/>
        <path fill="#317DE2" d="M198 47.107v12l-12-6z"/>
        <g filter="url(#d)" transform="translate(241 119.107)">
            <path fill="#FFF" d="M0 0h81.698l19.223 19.26V130H0z"/>
            <path fill="#317DE2" d="M18 26h65v6H18zM18 44h65v6H18zM18 63h65v6H18zM18 81h27v6H18z"/>
            <path fill="#F3F3F3" d="M82 0l19 19H82z"/>
        </g>
    </g>
</svg>
