<svg xmlns="http://www.w3.org/2000/svg" width="108" height="104" viewBox="0 0 108 104">
    <g fill="none" fill-rule="evenodd">
        <path d="M-5.353 41h72v72h-72z" opacity=".05"/>
        <path fill="#3F414F" d="M30.647 62V50h-30v54h60V62h-30zm-18 36h-6v-6h6v6zm0-12h-6v-6h6v6zm0-12h-6v-6h6v6zm0-12h-6v-6h6v6zm12 36h-6v-6h6v6zm0-12h-6v-6h6v6zm0-12h-6v-6h6v6zm0-12h-6v-6h6v6zm30 36h-24v-6h6v-6h-6v-6h6v-6h-6v-6h24v30zm-6-24h-6v6h6v-6zm0 12h-6v6h6v-6z"/>
        <path d="M14.647 24.814L37.339 17l7.814 22.692-22.693 7.814z" opacity=".05"/>
        <path fill="#E0E1E2" d="M29.636 22.825c-.775-.96-2.088-1.396-3.317-.973-1.23.424-1.996 1.576-2.016 2.81l-3.006 1.035a2.006 2.006 0 0 0-1.24 2.542l4.558 13.237a2.006 2.006 0 0 0 2.542 1.24l11.346-3.907a2.006 2.006 0 0 0 1.24-2.542L35.185 23.03a2.006 2.006 0 0 0-2.542-1.24l-3.007 1.035zm-1.395 1.538c.179.52-.1 1.092-.62 1.271-.52.18-1.092-.1-1.271-.62-.18-.52.1-1.092.62-1.27.52-.18 1.092.1 1.27.62zm-.495 13.92l-.652-1.891 5.674-1.954.65 1.891-5.672 1.954zM26.443 34.5l-.65-1.891 7.563-2.605.651 1.891-7.564 2.605zm-1.302-3.782l-.651-1.891 7.564-2.605.651 1.891-7.564 2.605z"/>
        <path d="M54.226-3l23.56 4.58-4.58 23.558-23.56-4.579z" opacity=".05"/>
        <path fill="#E0E1E2" d="M68.201 2.773c-.19-1.22-1.11-2.254-2.386-2.502-1.276-.248-2.516.367-3.15 1.426l-3.121-.607a2.006 2.006 0 0 0-2.345 1.581l-2.672 13.743a2.006 2.006 0 0 0 1.582 2.345l11.78 2.29a2.006 2.006 0 0 0 2.344-1.582l2.672-13.743a2.006 2.006 0 0 0-1.582-2.345l-3.122-.606zm-1.977.634c-.105.54-.632.896-1.172.79a1.003 1.003 0 0 1-.791-1.172c.105-.54.632-.895 1.172-.79.54.105.896.632.791 1.172zm-7.389 11.807l.382-1.963 5.89 1.145-.382 1.963-5.89-1.145zm.764-3.926l.381-1.964 7.853 1.527-.381 1.963-7.853-1.526zm.763-3.927l.382-1.963 7.853 1.526-.382 1.964-7.853-1.527z"/>
        <g>
            <path d="M92.282 34l20.991 11.635-11.635 20.991-20.991-11.635z" opacity=".05"/>
            <path fill="#E0E1E2" d="M103.79 43.809c.195-1.218-.36-2.486-1.497-3.117-1.137-.63-2.506-.429-3.436.382l-2.781-1.541a2.006 2.006 0 0 0-2.72.78L86.57 52.556a2.006 2.006 0 0 0 .78 2.719l10.495 5.818a2.006 2.006 0 0 0 2.72-.78l6.787-12.245a2.006 2.006 0 0 0-.78-2.719l-2.781-1.541zm-2.077-.008a1.003 1.003 0 0 1-1.36.39 1.003 1.003 0 0 1-.39-1.36 1.003 1.003 0 0 1 1.36-.39c.481.267.657.879.39 1.36zm-10.676 8.946l.97-1.75 5.248 2.91-.97 1.749-5.248-2.909zm1.94-3.498l.97-1.75 6.996 3.879-.97 1.749-6.996-3.878zm1.939-3.499l.97-1.75 6.996 3.88-.97 1.749-6.996-3.879z"/>
        </g>
        <g>
            <path d="M37.647 26h48v48h-48z" opacity=".05"/>
            <path fill="#317DE2" d="M67.287 32c-.84-2.32-3.04-4-5.64-4-2.6 0-4.8 1.68-5.64 4h-6.36c-2.2 0-4 1.8-4 4v28c0 2.2 1.8 4 4 4h24c2.2 0 4-1.8 4-4V36c0-2.2-1.8-4-4-4h-6.36zm-3.64 2c0 1.1-.9 2-2 2s-2-.9-2-2 .9-2 2-2 2 .9 2 2zm-10 26v-4h12v4h-12zm0-8v-4h16v4h-16zm0-8v-4h16v4h-16z"/>
        </g>
    </g>
</svg>
