<svg xmlns="http://www.w3.org/2000/svg" width="108" height="105" viewBox="0 0 108 105">
    <g fill="none" fill-rule="evenodd">
        <path d="M-5.5 41.545h72v72h-72z" opacity=".05"/>
        <path fill="#E0E1E2" d="M30.5 62.545v-12H.5v54h60v-42h-30zm-18 36h-6v-6h6v6zm0-12h-6v-6h6v6zm0-12h-6v-6h6v6zm0-12h-6v-6h6v6zm12 36h-6v-6h6v6zm0-12h-6v-6h6v6zm0-12h-6v-6h6v6zm0-12h-6v-6h6v6zm30 36h-24v-6h6v-6h-6v-6h6v-6h-6v-6h24v30zm-6-24h-6v6h6v-6zm0 12h-6v6h6v-6z"/>
        <path d="M14.5 25.359l22.692-7.814 7.814 22.693-22.692 7.813z" opacity=".05"/>
        <path fill="#E0E1E2" d="M29.49 23.37c-.775-.96-2.089-1.396-3.318-.973-1.23.424-1.996 1.576-2.015 2.81l-3.007 1.035a2.006 2.006 0 0 0-1.24 2.542l4.558 13.237a2.006 2.006 0 0 0 2.542 1.24l11.346-3.907a2.006 2.006 0 0 0 1.24-2.542l-4.558-13.237a2.006 2.006 0 0 0-2.542-1.24l-3.007 1.035zm-1.396 1.538c.18.52-.1 1.093-.62 1.272-.52.179-1.092-.1-1.271-.62-.18-.52.1-1.092.62-1.271.52-.18 1.092.1 1.271.62zm-.495 13.92l-.651-1.891 5.673-1.953.65 1.89-5.672 1.954zm-1.302-3.782l-.652-1.891 7.565-2.605.65 1.891-7.563 2.605zm-1.303-3.782l-.65-1.891 7.563-2.605.651 1.891-7.564 2.605z"/>
        <path d="M54.08-2.455l23.558 4.58-4.579 23.559-23.559-4.58z" opacity=".05"/>
        <path fill="#E0E1E2" d="M68.055 3.318c-.191-1.219-1.11-2.253-2.387-2.502-1.276-.248-2.516.367-3.15 1.426l-3.121-.607a2.006 2.006 0 0 0-2.345 1.582L54.38 16.959a2.006 2.006 0 0 0 1.581 2.345l11.78 2.29a2.006 2.006 0 0 0 2.345-1.582l2.67-13.743a2.006 2.006 0 0 0-1.58-2.344l-3.122-.607zm-1.978.634c-.105.54-.632.896-1.172.791a1.003 1.003 0 0 1-.79-1.172c.104-.54.632-.896 1.172-.791.54.105.895.632.79 1.172zM58.69 15.76l.381-1.963 5.89 1.145-.382 1.963-5.89-1.145zm.763-3.926l.382-1.963 7.853 1.526-.382 1.963-7.853-1.526zm.763-3.927l.382-1.963 7.853 1.526-.382 1.964-7.853-1.527z"/>
        <g>
            <path d="M92.135 34.545l20.991 11.636-11.635 20.99L80.5 55.536z" opacity=".05"/>
            <path fill="#E0E1E2" d="M103.643 44.354c.195-1.218-.36-2.486-1.497-3.117-1.137-.63-2.506-.428-3.436.383l-2.781-1.542a2.006 2.006 0 0 0-2.72.78l-6.786 12.244a2.006 2.006 0 0 0 .78 2.719l10.495 5.818a2.006 2.006 0 0 0 2.718-.78l6.788-12.245a2.006 2.006 0 0 0-.78-2.718l-2.781-1.542zm-2.077-.008a1.003 1.003 0 0 1-1.36.39 1.003 1.003 0 0 1-.389-1.36 1.003 1.003 0 0 1 1.36-.39c.48.267.656.88.39 1.36zm-10.675 8.946l.97-1.75 5.247 2.91-.97 1.749-5.247-2.909zm1.939-3.498l.97-1.75 6.996 3.879-.97 1.75-6.996-3.88zm1.94-3.499l.969-1.749 6.997 3.878-.97 1.75-6.997-3.879z"/>
        </g>
        <g>
            <path d="M37.5 26.545h48v48h-48z" opacity=".05"/>
            <path fill="#E0E1E2" d="M67.14 32.545c-.84-2.32-3.04-4-5.64-4-2.6 0-4.8 1.68-5.64 4H49.5c-2.2 0-4 1.8-4 4v28c0 2.2 1.8 4 4 4h24c2.2 0 4-1.8 4-4v-28c0-2.2-1.8-4-4-4h-6.36zm-3.64 2c0 1.1-.9 2-2 2s-2-.9-2-2 .9-2 2-2 2 .9 2 2zm-10 26v-4h12v4h-12zm0-8v-4h16v4h-16zm0-8v-4h16v4h-16z"/>
        </g>
    </g>
</svg>
