<svg xmlns="http://www.w3.org/2000/svg" xmlns:xlink="http://www.w3.org/1999/xlink" width="80" height="80" viewBox="0 0 80 80">
    <defs>
        <rect id="b" width="60" height="60" rx="30"/>
        <filter id="a" width="156.7%" height="156.7%" x="-28.3%" y="-21.7%" filterUnits="objectBoundingBox">
            <feOffset dy="4" in="SourceAlpha" result="shadowOffsetOuter1"/>
            <feGaussianBlur in="shadowOffsetOuter1" result="shadowBlurOuter1" stdDeviation="5"/>
            <feColorMatrix in="shadowBlurOuter1" values="0 0 0 0 0 0 0 0 0 0 0 0 0 0 0 0 0 0 0.05 0"/>
        </filter>
    </defs>
    <g fill="none" fill-rule="evenodd">
        <g transform="rotate(-180 35 37)">
            <use fill="#000" filter="url(#a)" xlink:href="#b"/>
            <use fill="#FFF" xlink:href="#b"/>
        </g>
        <path fill="#FF104F" d="M42.821 51.24l.523-.549a1 1 0 0 0 0-1.378L37.82 43.5l5.525-5.813a1 1 0 0 0 0-1.378l-.523-.549a1 1 0 0 0-1.448 0l-6.716 7.05a1 1 0 0 0 0 1.38l6.716 7.05a1 1 0 0 0 1.448 0z"/>
    </g>
</svg>
