<svg xmlns="http://www.w3.org/2000/svg" xmlns:xlink="http://www.w3.org/1999/xlink" width="70" height="70" viewBox="0 0 70 70">
    <defs>
        <circle id="a" cx="35" cy="35" r="35"/>
    </defs>
    <g fill="none" fill-rule="evenodd">
        <mask id="b" fill="#fff">
            <use xlink:href="#a"/>
        </mask>
        <use fill="#F2F2F2" xlink:href="#a"/>
        <path fill="#BFBFBF" d="M35 27v-6H20v27h30V27H35zm-9 18h-3v-3h3v3zm0-6h-3v-3h3v3zm0-6h-3v-3h3v3zm0-6h-3v-3h3v3zm6 18h-3v-3h3v3zm0-6h-3v-3h3v3zm0-6h-3v-3h3v3zm0-6h-3v-3h3v3zm15 18H35v-3h3v-3h-3v-3h3v-3h-3v-3h12v15zm-3-12h-3v3h3v-3zm0 6h-3v3h3v-3z" mask="url(#b)"/>
    </g>
</svg>
