<svg xmlns="http://www.w3.org/2000/svg" width="18" height="20" viewBox="0 0 18 20">
    <path fill="#317DE2" fill-rule="evenodd" d="M15 13.828c-.76 0-1.44.282-1.96.723l-7.13-3.894c.05-.216.09-.432.09-.657 0-.225-.04-.441-.09-.657l7.05-3.856c.54.469 1.25.76 2.04.76 1.66 0 3-1.257 3-2.815S16.66.617 15 .617s-3 1.257-3 2.815c0 .225.04.441.09.657L5.04 7.945c-.54-.469-1.25-.76-2.04-.76-1.66 0-3 1.257-3 2.815s1.34 2.815 3 2.815c.79 0 1.5-.291 2.04-.76l7.12 3.903c-.05.197-.08.404-.08.61 0 1.51 1.31 2.74 2.92 2.74 1.61 0 2.92-1.23 2.92-2.74 0-1.51-1.31-2.74-2.92-2.74z"/>
</svg>
