<svg xmlns="http://www.w3.org/2000/svg" width="141" height="84" viewBox="0 0 141 84">
    <g fill="none" fill-rule="evenodd">
        <path d="M27 21h72v72H27z" opacity=".05"/>
        <path fill="#3F414F" d="M63 60H33v24h60V42H63v18zM39 78v-6h6v6h-6zm0-12v-6h6v6h-6zm-2.381-12.989l-2.63-5.392 5.392-2.63 2.63 5.392-5.392 2.63zM51 78v-6h6v6h-6zm0-12v-6h6v6h-6zm0-12v-6h6v6h-6zm12 24v-6h6v-6h-6v-6h6v-6h-6v-6h24v30H63zm12-24v6h6v-6h-6zm0 12v6h6v-6h-6z"/>
        <path d="M-1 64h24v24H-1z" opacity=".05"/>
        <path fill="#317DE2" d="M19 72h-3v-4H2c-1.1 0-2 .9-2 2v11h2c0 1.66 1.34 3 3 3s3-1.34 3-3h6c0 1.66 1.34 3 3 3s3-1.34 3-3h2v-5l-3-4zM5 82.5c-.83 0-1.5-.67-1.5-1.5s.67-1.5 1.5-1.5 1.5.67 1.5 1.5-.67 1.5-1.5 1.5zm13.5-9l1.96 2.5H16v-2.5h2.5zm-1.5 9c-.83 0-1.5-.67-1.5-1.5s.67-1.5 1.5-1.5 1.5.67 1.5 1.5-.67 1.5-1.5 1.5z"/>
        <g>
            <path stroke="#0974FF" stroke-linecap="round" stroke-linejoin="round" stroke-width="2" d="M103 83V22H39v9M106 1L39 22M109 83V22M106 21V1"/>
            <g stroke="#0974FF" stroke-linecap="round" stroke-linejoin="round" stroke-width="2">
                <path d="M109 80l-6-5M109 69l-6-5M109 59l-6-5M109 48l-6-5M109 38l-6-5M109 28l-6-5"/>
            </g>
            <path stroke="#0974FF" stroke-linecap="round" stroke-linejoin="round" stroke-width="2" d="M103 22h37M106 1l34 21M97 83h20"/>
            <path fill="#317DE2" d="M131 22h10v10h-10zM119 22h10v10h-10z"/>
        </g>
        <path fill="#3F414F" d="M23.66 28.612l30.618 4.85-.938 5.926-30.618-4.85z"/>
    </g>
</svg>
